<svg width="91" height="70" viewBox="0 0 91 70" fill="none" xmlns="http://www.w3.org/2000/svg">
<g filter="url(#filter0_d_463_80)">
<path fill-rule="evenodd" clip-rule="evenodd" d="M84.001 34.5C84.001 48.031 73.032 59 59.501 59C45.9701 59 35.001 48.031 35.001 34.5C35.001 23.2194 42.6248 13.7195 53.001 10.8716C53.1263 10.8372 53.252 10.8038 53.3781 10.7713C55.3352 10.2678 57.3868 10 59.501 10C61.7515 10 63.931 10.3034 66.001 10.8716C76.3773 13.7195 84.001 23.2194 84.001 34.5ZM66.001 7.77268C78.0518 10.6931 87.001 21.5514 87.001 34.5C87.001 49.6878 74.6889 62 59.501 62C44.3132 62 32.001 49.6878 32.001 34.5C32.001 21.5514 40.9503 10.6931 53.001 7.77268V5V3V0H56.001H63.001H66.001V3V5V7.77268ZM56.001 7.22063C56.001 7.22063 56.001 7.22063 56.001 7.22063V8H63.001V7.22063C63.0019 7.22073 63.0027 7.22084 63.0035 7.22094M56.001 3H63.001V5H56.001V3Z" fill="#ED8A2E"/>
<line x1="4" y1="34.6586" x2="28" y2="34.6586" stroke="#ED8A2E" stroke-width="3"/>
<path fill-rule="evenodd" clip-rule="evenodd" d="M60.9327 53.9479C71.177 53.2029 79.1727 44.57 78.9982 34.1729C78.829 24.0873 71.032 15.9188 61.1967 15.0724L61.2675 19.291L58.2679 19.3413L58.1958 15.0434C47.891 15.7262 39.8287 24.3873 40.0038 34.8271C40.1738 44.956 48.0371 53.1513 57.9321 53.9381L57.8546 49.317L60.8542 49.2666L60.9327 53.9479ZM59.8785 56.9968C72.3031 56.7883 82.2063 46.5472 81.9978 34.1225C81.7893 21.6979 71.5482 11.7948 59.1236 12.0032C46.699 12.2117 36.7958 22.4528 37.0043 34.8774C37.2127 47.3021 47.4539 57.2052 59.8785 56.9968Z" fill="#ED8A2E"/>
<path fill-rule="evenodd" clip-rule="evenodd" d="M40.0532 33.0683C40.7981 22.8241 49.431 14.8284 59.8282 15.0028C69.9137 15.172 78.0822 22.969 78.9287 32.8043L74.71 32.7335L74.6597 35.7331L78.9577 35.8052C78.2749 46.1101 69.6138 54.1724 59.1739 53.9972C49.0451 53.8272 40.8498 45.9639 40.0629 36.0689L44.6841 36.1464L44.7344 33.1469L40.0532 33.0683ZM37.0043 34.1225C37.2127 21.6979 47.4539 11.7948 59.8785 12.0032C72.3031 12.2117 82.2063 22.4528 81.9978 34.8775C81.7893 47.3021 71.5482 57.2052 59.1236 56.9968C46.699 56.7883 36.7958 46.5472 37.0043 34.1225Z" fill="#ED8A2E"/>
<path fill-rule="evenodd" clip-rule="evenodd" d="M78.9935 34.4719C78.9665 30.4518 77.6921 26.4354 75.1619 23.0472L71.9962 26.0943L69.9059 23.9427L73.1856 20.7859C65.6584 13.3942 53.5426 13.3196 45.9239 20.6816L49.096 23.7349L47.0058 25.8865L43.9304 22.9263C41.3352 26.3462 40.0249 30.433 40.0084 34.5272C40.0407 39.2561 41.799 43.9712 45.2697 47.6562L48.8793 44.1818L50.9695 46.3334L47.4913 49.6813C54.5825 55.2155 64.6062 55.1584 71.6298 49.5881L68.0325 46.1256L70.1228 43.974L73.8341 47.5463C77.2602 43.8501 78.9756 39.1615 78.9935 34.4719ZM43.3822 18.7703C52.0521 9.9093 66.2969 9.72192 75.1989 18.3518C79.7451 22.759 82.0187 28.6134 82.0005 34.4677C82.0357 40.3435 79.7621 46.2248 75.1992 50.6482C66.2972 59.2781 52.0524 59.0907 43.3825 50.2297C39.1039 45.8567 36.9827 40.1886 37.0015 34.5313C36.9667 28.8533 39.0878 23.1594 43.3822 18.7703Z" fill="#ED8A2E"/>
<line x1="28.0007" y1="13.5529" x2="36.0007" y2="13.5529" stroke="#ED8A2E" stroke-width="3"/>
<line x1="59.001" y1="34.5" x2="67.001" y2="34.5" stroke="#ED8A2E" stroke-width="3"/>
<line x1="59.501" y1="35" x2="59.501" y2="27" stroke="#ED8A2E" stroke-width="3"/>
<line y1="-1.5" x2="8" y2="-1.5" transform="matrix(1 0 0 -1 28.0007 54.2643)" stroke="#ED8A2E" stroke-width="3"/>
<line x1="16.0004" y1="23.6057" x2="32.0004" y2="23.6057" stroke="#ED8A2E" stroke-width="3"/>
<line y1="-1.5" x2="16" y2="-1.5" transform="matrix(1 0 0 -1 16.0004 44.2114)" stroke="#ED8A2E" stroke-width="3"/>
<circle cx="59.501" cy="34.5" r="1.5" fill="#ED8A2E"/>
</g>
<defs>
<filter id="filter0_d_463_80" x="0" y="0" width="91.001" height="70" filterUnits="userSpaceOnUse" color-interpolation-filters="sRGB">
<feFlood flood-opacity="0" result="BackgroundImageFix"/>
<feColorMatrix in="SourceAlpha" type="matrix" values="0 0 0 0 0 0 0 0 0 0 0 0 0 0 0 0 0 0 127 0" result="hardAlpha"/>
<feOffset dy="4"/>
<feGaussianBlur stdDeviation="2"/>
<feComposite in2="hardAlpha" operator="out"/>
<feColorMatrix type="matrix" values="0 0 0 0 0 0 0 0 0 0 0 0 0 0 0 0 0 0 0.25 0"/>
<feBlend mode="normal" in2="BackgroundImageFix" result="effect1_dropShadow_463_80"/>
<feBlend mode="normal" in="SourceGraphic" in2="effect1_dropShadow_463_80" result="shape"/>
</filter>
</defs>
</svg>
