<svg width="30" height="38" viewBox="0 0 30 38" fill="none" xmlns="http://www.w3.org/2000/svg">
<g filter="url(#filter0_d_703_11)">
<line x1="13" x2="13" y2="30" stroke="#ED8A2E" stroke-width="2"/>
</g>
<g filter="url(#filter1_d_703_11)">
<line y1="-1" x2="30" y2="-1" transform="matrix(0 1 1 0 18 0)" stroke="#ED8A2E" stroke-width="2"/>
</g>
<path d="M12.7071 15.7071C13.0976 15.3166 13.0976 14.6834 12.7071 14.2929L6.34315 7.92893C5.95262 7.53841 5.31946 7.53841 4.92893 7.92893C4.53841 8.31946 4.53841 8.95262 4.92893 9.34315L10.5858 15L4.92893 20.6569C4.53841 21.0474 4.53841 21.6805 4.92893 22.0711C5.31946 22.4616 5.95262 22.4616 6.34315 22.0711L12.7071 15.7071ZM0 16H12V14H0V16Z" fill="#ED8A2E"/>
<path d="M17.2929 15.7071C16.9024 15.3166 16.9024 14.6834 17.2929 14.2929L23.6569 7.92893C24.0474 7.53841 24.6805 7.53841 25.0711 7.92893C25.4616 8.31946 25.4616 8.95262 25.0711 9.34315L19.4142 15L25.0711 20.6569C25.4616 21.0474 25.4616 21.6805 25.0711 22.0711C24.6805 22.4616 24.0474 22.4616 23.6569 22.0711L17.2929 15.7071ZM30 16H18V14H30V16Z" fill="#ED8A2E"/>
<defs>
<filter id="filter0_d_703_11" x="8" y="0" width="10" height="38" filterUnits="userSpaceOnUse" color-interpolation-filters="sRGB">
<feFlood flood-opacity="0" result="BackgroundImageFix"/>
<feColorMatrix in="SourceAlpha" type="matrix" values="0 0 0 0 0 0 0 0 0 0 0 0 0 0 0 0 0 0 127 0" result="hardAlpha"/>
<feOffset dy="4"/>
<feGaussianBlur stdDeviation="2"/>
<feComposite in2="hardAlpha" operator="out"/>
<feColorMatrix type="matrix" values="0 0 0 0 0 0 0 0 0 0 0 0 0 0 0 0 0 0 0.25 0"/>
<feBlend mode="normal" in2="BackgroundImageFix" result="effect1_dropShadow_703_11"/>
<feBlend mode="normal" in="SourceGraphic" in2="effect1_dropShadow_703_11" result="shape"/>
</filter>
<filter id="filter1_d_703_11" x="12" y="0" width="10" height="38" filterUnits="userSpaceOnUse" color-interpolation-filters="sRGB">
<feFlood flood-opacity="0" result="BackgroundImageFix"/>
<feColorMatrix in="SourceAlpha" type="matrix" values="0 0 0 0 0 0 0 0 0 0 0 0 0 0 0 0 0 0 127 0" result="hardAlpha"/>
<feOffset dy="4"/>
<feGaussianBlur stdDeviation="2"/>
<feComposite in2="hardAlpha" operator="out"/>
<feColorMatrix type="matrix" values="0 0 0 0 0 0 0 0 0 0 0 0 0 0 0 0 0 0 0.25 0"/>
<feBlend mode="normal" in2="BackgroundImageFix" result="effect1_dropShadow_703_11"/>
<feBlend mode="normal" in="SourceGraphic" in2="effect1_dropShadow_703_11" result="shape"/>
</filter>
</defs>
</svg>
