<svg width="38" height="38" viewBox="0 0 38 38" fill="none" xmlns="http://www.w3.org/2000/svg">
<g filter="url(#filter0_d_704_27)">
<mask id="path-1-inside-1_704_27" fill="white">
<path fill-rule="evenodd" clip-rule="evenodd" d="M4.0034 25.5405L4.0035 26.3267L4.07641 26.221C4.46993 28.3707 6.35279 30 8.61618 30H11.4743H11.8953H13.4743H13.8953H32.0002H34.0002V28V22.7693V20.7693H32.0002H29.5568L33.9214 17.6321L29.7376 11.6399L28.5927 10.0001L26.9257 11.1051L21.8981 14.4378L26.6931 7.31323L27.8106 5.65274L26.1019 4.61244L21.4976 1.80928L19.7893 0.769235L18.7097 2.45281L13.1567 11.1122L13.4165 2.00001L13.4735 0L11.4727 0.000252633L6 0.000943638L4 0.00119617L4.00027 2.0012L4.00305 22.9495L4.00313 23.5133L4.00317 23.8005L4.00336 25.2301C4.00167 25.2814 4.00082 25.3329 4.00082 25.3846C4.00082 25.4368 4.00168 25.4887 4.0034 25.5405ZM7.52701 19.1725L6.00277 20.8062L6.00027 2.00094L11.4157 2.00026L11.0946 13.263L7.52701 19.1725ZM9.72954 20.1607L12.7392 20.2882L18.2529 16.2747L24.9843 6.27293L20.418 3.49286L9.72954 20.1607ZM27.0066 20.1377H16.9181L28.0706 12.745L31.1519 17.1582L27.0066 20.1377ZM13.8953 22.7693H32.0002V28H13.8953V22.7693ZM8.73745 25.9231C9.08181 25.9231 9.31636 25.6577 9.31636 25.3846C9.31636 25.1116 9.08181 24.8462 8.73745 24.8462C8.39309 24.8462 8.15853 25.1116 8.15853 25.3846C8.15853 25.6577 8.39309 25.9231 8.73745 25.9231ZM8.73745 26.9231C9.60946 26.9231 10.3164 26.2343 10.3164 25.3846C10.3164 24.535 9.60946 23.8462 8.73745 23.8462C7.86544 23.8462 7.15853 24.535 7.15853 25.3846C7.15853 26.2343 7.86544 26.9231 8.73745 26.9231ZM8.61618 22.7693H11.4743V28H8.61618C7.17175 28 6.00082 26.8291 6.00082 25.3846C6.00082 23.9402 7.17175 22.7693 8.61618 22.7693Z"/>
</mask>
<path fill-rule="evenodd" clip-rule="evenodd" d="M4.0034 25.5405L4.0035 26.3267L4.07641 26.221C4.46993 28.3707 6.35279 30 8.61618 30H11.4743H11.8953H13.4743H13.8953H32.0002H34.0002V28V22.7693V20.7693H32.0002H29.5568L33.9214 17.6321L29.7376 11.6399L28.5927 10.0001L26.9257 11.1051L21.8981 14.4378L26.6931 7.31323L27.8106 5.65274L26.1019 4.61244L21.4976 1.80928L19.7893 0.769235L18.7097 2.45281L13.1567 11.1122L13.4165 2.00001L13.4735 0L11.4727 0.000252633L6 0.000943638L4 0.00119617L4.00027 2.0012L4.00305 22.9495L4.00313 23.5133L4.00317 23.8005L4.00336 25.2301C4.00167 25.2814 4.00082 25.3329 4.00082 25.3846C4.00082 25.4368 4.00168 25.4887 4.0034 25.5405ZM7.52701 19.1725L6.00277 20.8062L6.00027 2.00094L11.4157 2.00026L11.0946 13.263L7.52701 19.1725ZM9.72954 20.1607L12.7392 20.2882L18.2529 16.2747L24.9843 6.27293L20.418 3.49286L9.72954 20.1607ZM27.0066 20.1377H16.9181L28.0706 12.745L31.1519 17.1582L27.0066 20.1377ZM13.8953 22.7693H32.0002V28H13.8953V22.7693ZM8.73745 25.9231C9.08181 25.9231 9.31636 25.6577 9.31636 25.3846C9.31636 25.1116 9.08181 24.8462 8.73745 24.8462C8.39309 24.8462 8.15853 25.1116 8.15853 25.3846C8.15853 25.6577 8.39309 25.9231 8.73745 25.9231ZM8.73745 26.9231C9.60946 26.9231 10.3164 26.2343 10.3164 25.3846C10.3164 24.535 9.60946 23.8462 8.73745 23.8462C7.86544 23.8462 7.15853 24.535 7.15853 25.3846C7.15853 26.2343 7.86544 26.9231 8.73745 26.9231ZM8.61618 22.7693H11.4743V28H8.61618C7.17175 28 6.00082 26.8291 6.00082 25.3846C6.00082 23.9402 7.17175 22.7693 8.61618 22.7693Z" fill="black"/>
<path d="M4.0034 25.5405L6.0034 25.5402L6.00339 25.5072L6.0023 25.4741L4.0034 25.5405ZM4.0035 26.3267L2.0035 26.327L2.00435 32.7465L5.64975 27.4624L4.0035 26.3267ZM4.07641 26.221L6.04372 25.8609L5.17375 21.1084L2.43016 25.0853L4.07641 26.221ZM34.0002 30V32H36.0002V30H34.0002ZM34.0002 20.7693H36.0002V18.7693H34.0002V20.7693ZM29.5568 20.7693L28.3895 19.1452L23.3474 22.7693H29.5568V20.7693ZM33.9214 17.6321L35.0887 19.2562L36.6906 18.1048L35.5612 16.4872L33.9214 17.6321ZM29.7376 11.6399L31.3775 10.495L31.3775 10.495L29.7376 11.6399ZM28.5927 10.0001L30.2326 8.85515L29.1149 7.25443L27.4877 8.33308L28.5927 10.0001ZM26.9257 11.1051L25.8207 9.4381L25.8207 9.4381L26.9257 11.1051ZM21.8981 14.4378L20.2389 13.3211L23.0031 16.1048L21.8981 14.4378ZM26.6931 7.31323L28.3523 8.42992L28.3523 8.42992L26.6931 7.31323ZM27.8106 5.65274L29.4698 6.76943L30.6385 5.03293L28.8507 3.94444L27.8106 5.65274ZM26.1019 4.61244L27.1419 2.90414L27.1419 2.90414L26.1019 4.61244ZM21.4976 1.80928L20.4576 3.51759L20.4576 3.51759L21.4976 1.80928ZM19.7893 0.769235L20.8294 -0.939068L19.1605 -1.95513L18.1058 -0.310383L19.7893 0.769235ZM18.7097 2.45281L17.0261 1.37319L17.0261 1.37319L18.7097 2.45281ZM13.1567 11.1122L11.1575 11.0552L10.9523 18.2549L14.8403 12.1918L13.1567 11.1122ZM13.4165 2.00001L11.4173 1.94302L11.4173 1.94302L13.4165 2.00001ZM13.4735 0L15.4727 0.0569892L15.5313 -2.00026L13.4732 -2L13.4735 0ZM11.4727 0.000252633L11.4729 2.00025L11.4727 0.000252633ZM6 0.000943638L5.99975 -1.99906L6 0.000943638ZM4 0.00119617L3.99975 -1.9988L1.99973 -1.99855L2 0.00146215L4 0.00119617ZM4.00027 2.0012L2.00027 2.00146L4.00027 2.0012ZM4.00305 22.9495L2.00305 22.9498L4.00305 22.9495ZM4.00313 23.5133L6.00313 23.513L4.00313 23.5133ZM4.00317 23.8005L2.00317 23.8007L4.00317 23.8005ZM4.00336 25.2301L6.00227 25.2958L6.00336 25.2628L6.00336 25.2298L4.00336 25.2301ZM6.00277 20.8062L4.00277 20.8064L4.00344 25.8808L7.46512 22.1706L6.00277 20.8062ZM7.52701 19.1725L8.98937 20.5369L9.13151 20.3845L9.23919 20.2061L7.52701 19.1725ZM6.00027 2.00094L6.00001 0.000943698L4 0.00119623L4.00027 2.00121L6.00027 2.00094ZM11.4157 2.00026L13.4149 2.05725L13.4735 4.59896e-08L11.4154 0.000259913L11.4157 2.00026ZM11.0946 13.263L12.8068 14.2966L13.0788 13.8461L13.0938 13.32L11.0946 13.263ZM12.7392 20.2882L12.6545 22.2864L13.3519 22.3159L13.9162 21.9052L12.7392 20.2882ZM9.72954 20.1607L8.04596 19.081L6.16675 22.0115L9.64489 22.1589L9.72954 20.1607ZM18.2529 16.2747L19.4299 17.8917L19.7152 17.6841L19.9122 17.3914L18.2529 16.2747ZM24.9843 6.27293L26.6436 7.38961L27.8123 5.65311L26.0244 4.56462L24.9843 6.27293ZM20.418 3.49286L21.4581 1.78455L19.7892 0.768493L18.7344 2.41324L20.418 3.49286ZM16.9181 20.1377L15.8131 18.4707L10.2811 22.1377H16.9181V20.1377ZM27.0066 20.1377V22.1377H27.6508L28.1739 21.7617L27.0066 20.1377ZM28.0706 12.745L29.7105 11.6L28.5929 9.9993L26.9656 11.078L28.0706 12.745ZM31.1519 17.1582L32.3192 18.7822L33.9212 17.6308L32.7918 16.0132L31.1519 17.1582ZM32.0002 22.7693H34.0002V20.7693H32.0002V22.7693ZM13.8953 22.7693V20.7693H11.8953V22.7693H13.8953ZM32.0002 28V30H34.0002V28H32.0002ZM13.8953 28H11.8953V30H13.8953V28ZM11.4743 22.7693H13.4743V20.7693H11.4743V22.7693ZM11.4743 28V30H13.4743V28H11.4743ZM2.0034 25.5407L2.0035 26.327L6.0035 26.3265L6.0034 25.5402L2.0034 25.5407ZM5.64975 27.4624L5.72266 27.3568L2.43016 25.0853L2.35725 25.191L5.64975 27.4624ZM2.1091 26.5812C2.67338 29.6637 5.36984 32 8.61618 32V28C7.33574 28 6.26649 27.0778 6.04372 25.8609L2.1091 26.5812ZM8.61618 32H11.4743V28H8.61618V32ZM11.4743 32H11.8953V28H11.4743V32ZM11.8953 32H13.4743V28H11.8953V32ZM13.4743 32H13.8953V28H13.4743V32ZM13.8953 32H32.0002V28H13.8953V32ZM32.0002 32H34.0002V28H32.0002V32ZM36.0002 30V28H32.0002V30H36.0002ZM36.0002 28V22.7693H32.0002V28H36.0002ZM36.0002 22.7693V20.7693H32.0002V22.7693H36.0002ZM34.0002 18.7693H32.0002V22.7693H34.0002V18.7693ZM32.0002 18.7693H29.5568V22.7693H32.0002V18.7693ZM30.724 22.3933L35.0887 19.2562L32.7541 16.0081L28.3895 19.1452L30.724 22.3933ZM35.5612 16.4872L31.3775 10.495L28.0978 12.7849L32.2815 18.7771L35.5612 16.4872ZM31.3775 10.495L30.2326 8.85515L26.9529 11.145L28.0978 12.7849L31.3775 10.495ZM27.4877 8.33308L25.8207 9.4381L28.0307 12.7721L29.6977 11.6671L27.4877 8.33308ZM25.8207 9.4381L20.7931 12.7707L23.0031 16.1048L28.0307 12.7721L25.8207 9.4381ZM23.5573 15.5544L28.3523 8.42992L25.0338 6.19654L20.2389 13.3211L23.5573 15.5544ZM28.3523 8.42992L29.4698 6.76943L26.1514 4.53606L25.0338 6.19654L28.3523 8.42992ZM28.8507 3.94444L27.1419 2.90414L25.0618 6.32074L26.7706 7.36105L28.8507 3.94444ZM27.1419 2.90414L22.5377 0.100979L20.4576 3.51759L25.0618 6.32074L27.1419 2.90414ZM22.5377 0.100979L20.8294 -0.939068L18.7493 2.47754L20.4576 3.51759L22.5377 0.100979ZM18.1058 -0.310383L17.0261 1.37319L20.3933 3.53243L21.4729 1.84885L18.1058 -0.310383ZM17.0261 1.37319L11.4732 10.0326L14.8403 12.1918L20.3933 3.53243L17.0261 1.37319ZM15.1559 11.1692L15.4157 2.057L11.4173 1.94302L11.1575 11.0552L15.1559 11.1692ZM15.4157 2.057L15.4727 0.0569892L11.4743 -0.0569892L11.4173 1.94302L15.4157 2.057ZM13.4732 -2L11.4724 -1.99975L11.4729 2.00025L13.4738 2L13.4732 -2ZM11.4724 -1.99975L5.99975 -1.99906L6.00025 2.00094L11.4729 2.00025L11.4724 -1.99975ZM5.99975 -1.99906L3.99975 -1.9988L4.00025 2.0012L6.00025 2.00094L5.99975 -1.99906ZM2 0.00146215L2.00027 2.00146L6.00027 2.00093L6 0.00093018L2 0.00146215ZM2.00027 2.00146L2.00305 22.9498L6.00305 22.9492L6.00027 2.00093L2.00027 2.00146ZM2.00305 22.9498L2.00313 23.5136L6.00313 23.513L6.00305 22.9492L2.00305 22.9498ZM2.00313 23.5136L2.00317 23.8007L6.00317 23.8002L6.00313 23.513L2.00313 23.5136ZM2.00317 23.8007L2.00336 25.2303L6.00336 25.2298L6.00317 23.8002L2.00317 23.8007ZM2.00444 25.1643C2.00203 25.2375 2.00082 25.311 2.00082 25.3846H6.00082C6.00082 25.3548 6.00131 25.3252 6.00227 25.2958L2.00444 25.1643ZM2.00082 25.3846C2.00082 25.4589 2.00205 25.5329 2.0045 25.6068L6.0023 25.4741C6.00131 25.4445 6.00082 25.4147 6.00082 25.3846H2.00082ZM7.46512 22.1706L8.98937 20.5369L6.06466 17.8081L4.54041 19.4418L7.46512 22.1706ZM4.00027 2.00121L4.00277 20.8064L8.00277 20.8059L8.00027 2.00068L4.00027 2.00121ZM11.4154 0.000259913L6.00001 0.000943698L6.00052 4.00094L11.4159 4.00026L11.4154 0.000259913ZM13.0938 13.32L13.4149 2.05725L9.41648 1.94327L9.09543 13.206L13.0938 13.32ZM9.23919 20.2061L12.8068 14.2966L9.38243 12.2293L5.81483 18.1388L9.23919 20.2061ZM12.8238 18.29L9.81419 18.1625L9.64489 22.1589L12.6545 22.2864L12.8238 18.29ZM17.0759 14.6577L11.5622 18.6712L13.9162 21.9052L19.4299 17.8917L17.0759 14.6577ZM23.3251 5.15624L16.5937 15.158L19.9122 17.3914L26.6436 7.38961L23.3251 5.15624ZM19.378 5.20116L23.9443 7.98123L26.0244 4.56462L21.4581 1.78455L19.378 5.20116ZM11.4131 21.2403L22.1016 4.57248L18.7344 2.41324L8.04596 19.081L11.4131 21.2403ZM16.9181 22.1377H27.0066V18.1377H16.9181V22.1377ZM26.9656 11.078L15.8131 18.4707L18.0231 21.8047L29.1757 14.412L26.9656 11.078ZM32.7918 16.0132L29.7105 11.6L26.4308 13.8899L29.5121 18.3031L32.7918 16.0132ZM28.1739 21.7617L32.3192 18.7822L29.9846 15.5341L25.8393 18.5136L28.1739 21.7617ZM32.0002 20.7693H13.8953V24.7693H32.0002V20.7693ZM34.0002 28V22.7693H30.0002V28H34.0002ZM13.8953 30H32.0002V26H13.8953V30ZM11.8953 22.7693V28H15.8953V22.7693H11.8953ZM7.31636 25.3846C7.31636 24.5307 7.99976 23.9231 8.73745 23.9231V27.9231C10.1638 27.9231 11.3164 26.7847 11.3164 25.3846H7.31636ZM8.73745 26.8462C7.99977 26.8462 7.31636 26.2385 7.31636 25.3846H11.3164C11.3164 23.9846 10.1638 22.8462 8.73745 22.8462V26.8462ZM10.1585 25.3846C10.1585 26.2385 9.47513 26.8462 8.73745 26.8462V22.8462C7.31105 22.8462 6.15853 23.9846 6.15853 25.3846H10.1585ZM8.73745 23.9231C9.47513 23.9231 10.1585 24.5307 10.1585 25.3846H6.15853C6.15853 26.7847 7.31104 27.9231 8.73745 27.9231V23.9231ZM8.31636 25.3846C8.31636 25.0811 8.55415 24.9231 8.73745 24.9231V28.9231C10.6648 28.9231 12.3164 27.3875 12.3164 25.3846H8.31636ZM8.73745 25.8462C8.55415 25.8462 8.31636 25.6882 8.31636 25.3846H12.3164C12.3164 23.3818 10.6648 21.8462 8.73745 21.8462V25.8462ZM9.15853 25.3846C9.15853 25.6882 8.92074 25.8462 8.73745 25.8462V21.8462C6.81013 21.8462 5.15853 23.3818 5.15853 25.3846H9.15853ZM8.73745 24.9231C8.92074 24.9231 9.15853 25.0811 9.15853 25.3846H5.15853C5.15853 27.3875 6.81013 28.9231 8.73745 28.9231V24.9231ZM11.4743 20.7693H8.61618V24.7693H11.4743V20.7693ZM13.4743 28V22.7693H9.47432V28H13.4743ZM8.61618 30H11.4743V26H8.61618V30ZM4.00082 25.3846C4.00082 27.9336 6.06718 30 8.61618 30V26C8.27632 26 8.00082 25.7245 8.00082 25.3846H4.00082ZM8.61618 20.7693C6.06719 20.7693 4.00082 22.8356 4.00082 25.3846H8.00082C8.00082 25.0448 8.27632 24.7693 8.61618 24.7693V20.7693Z" fill="#ED8A2E" mask="url(#path-1-inside-1_704_27)"/>
</g>
<defs>
<filter id="filter0_d_704_27" x="0" y="0" width="38.0002" height="38" filterUnits="userSpaceOnUse" color-interpolation-filters="sRGB">
<feFlood flood-opacity="0" result="BackgroundImageFix"/>
<feColorMatrix in="SourceAlpha" type="matrix" values="0 0 0 0 0 0 0 0 0 0 0 0 0 0 0 0 0 0 127 0" result="hardAlpha"/>
<feOffset dy="4"/>
<feGaussianBlur stdDeviation="2"/>
<feComposite in2="hardAlpha" operator="out"/>
<feColorMatrix type="matrix" values="0 0 0 0 0 0 0 0 0 0 0 0 0 0 0 0 0 0 0.25 0"/>
<feBlend mode="normal" in2="BackgroundImageFix" result="effect1_dropShadow_704_27"/>
<feBlend mode="normal" in="SourceGraphic" in2="effect1_dropShadow_704_27" result="shape"/>
</filter>
</defs>
</svg>
