<svg width="25" height="25" viewBox="0 0 25 25" fill="none" xmlns="http://www.w3.org/2000/svg">
<path fill-rule="evenodd" clip-rule="evenodd" d="M8.33333 24.4108C3.47836 22.6948 0 18.0647 0 12.6221C0 7.17952 3.47836 2.54936 8.33333 0.833374V24.4108Z" fill="#0052B4"/>
<path fill-rule="evenodd" clip-rule="evenodd" d="M16.6667 24.4108C21.5217 22.6948 25 18.0646 25 12.6221C25 7.17952 21.5217 2.54938 16.6667 0.833374V24.4108Z" fill="#D80027"/>
<path fill-rule="evenodd" clip-rule="evenodd" d="M16.6667 24.2887C15.3635 24.7493 13.961 25 12.5 25C11.039 25 9.63658 24.7494 8.33333 24.2887V0.711274C9.63658 0.250643 11.039 0 12.5 0C13.961 0 15.3635 0.250653 16.6667 0.711303V24.2887Z" fill="#F0F0F0"/>
</svg>
