<svg width="32" height="37" viewBox="0 0 32 37" fill="none" xmlns="http://www.w3.org/2000/svg">
<g filter="url(#filter0_d_729_38)">
<path d="M13.9501 24.8807C13.9148 25.1184 13.6892 25.281 13.4568 25.2203C12.5364 24.98 11.6746 24.5139 10.9362 23.8542C10.0843 23.0931 9.426 22.1004 9.02586 20.9733C8.62572 19.8463 8.49749 18.6238 8.65373 17.4255C8.79037 16.3776 9.14046 15.3797 9.67545 14.5062C9.79875 14.3049 10.0723 14.2711 10.2514 14.4249V14.4249C10.4077 14.5589 10.4354 14.789 10.3272 14.9642C9.85052 15.7358 9.53881 16.6191 9.4178 17.5471C9.28064 18.5991 9.39321 19.6724 9.74449 20.6618C10.0958 21.6511 10.6737 22.5226 11.4216 23.1908C12.0629 23.7639 12.8104 24.1705 13.6088 24.3834C13.8307 24.4425 13.9839 24.6536 13.9501 24.8807V24.8807Z" fill="#ED8A2E"/>
<path d="M21.4048 15.5646C21.3758 15.7666 21.1825 15.9062 20.9917 15.8338C20.7214 15.7314 20.4685 15.5737 20.2457 15.3671C19.9262 15.0711 19.6793 14.6851 19.5293 14.2468C19.3792 13.8085 19.3311 13.3331 19.3897 12.8671C19.4321 12.5303 19.529 12.2069 19.6747 11.913C19.763 11.7348 19.9955 11.7061 20.1441 11.8383V11.8383C20.2675 11.9481 20.2878 12.1312 20.2154 12.2796C20.1114 12.4926 20.042 12.7265 20.0114 12.9697C19.9684 13.3123 20.0037 13.6617 20.114 13.9839C20.2243 14.306 20.4057 14.5898 20.6406 14.8074C20.787 14.943 20.951 15.05 21.126 15.125C21.3023 15.2005 21.432 15.3746 21.4048 15.5646V15.5646Z" fill="#ED8A2E"/>
<ellipse cx="15.503" cy="25.2135" rx="0.592637" ry="0.582147" fill="#ED8A2E"/>
<ellipse cx="22.9212" cy="16.3593" rx="0.395092" ry="0.388098" fill="#ED8A2E"/>
<path d="M20.5509 8.59728L15.8109 2L8.43818 12.501C8.08581 13.0029 7.78151 13.536 7.52917 14.0934L7.36198 14.4627C6.68309 15.9623 6.39477 17.6059 6.52297 19.2457L6.54596 19.5398C6.6616 21.0191 7.14697 22.4488 7.95891 23.7021V23.7021C8.95479 25.2393 10.3996 26.4457 12.1029 27.1625L12.254 27.2261L13.1533 27.5205C14.8811 28.0863 16.7431 28.1082 18.4795 27.5834V27.5834C20.0893 27.0969 21.5196 26.1618 22.5975 24.8912L22.9215 24.5094L23.3142 24.0272C24.0956 23.0677 24.6431 21.9444 24.9149 20.743V20.743C25.1636 19.6438 25.1757 18.5047 24.9505 17.3987L24.8969 17.1355" stroke="#ED8A2E" stroke-width="2"/>
<path d="M18.3618 14.0831L18.3704 14.1585C18.5013 15.3166 19.102 16.3735 20.0281 17.081C21.3139 18.0634 23.0494 18.2369 24.5018 17.5236L25.3854 16.8725C25.8436 16.535 26.2165 16.0952 26.4747 15.5881C26.7361 15.0746 26.8723 14.5065 26.8723 13.9303V13.5418C26.8723 13.0946 26.799 12.6503 26.6553 12.2268C26.5371 11.8786 26.3726 11.5479 26.1661 11.2437L22.5263 5.88062L19.0688 11.1295C18.4947 12.001 18.2445 13.0462 18.3618 14.0831Z" stroke="#ED8A2E"/>
</g>
<defs>
<filter id="filter0_d_729_38" x="1.48486" y="0.268311" width="29.8875" height="36.6848" filterUnits="userSpaceOnUse" color-interpolation-filters="sRGB">
<feFlood flood-opacity="0" result="BackgroundImageFix"/>
<feColorMatrix in="SourceAlpha" type="matrix" values="0 0 0 0 0 0 0 0 0 0 0 0 0 0 0 0 0 0 127 0" result="hardAlpha"/>
<feOffset dy="4"/>
<feGaussianBlur stdDeviation="2"/>
<feComposite in2="hardAlpha" operator="out"/>
<feColorMatrix type="matrix" values="0 0 0 0 0 0 0 0 0 0 0 0 0 0 0 0 0 0 0.25 0"/>
<feBlend mode="normal" in2="BackgroundImageFix" result="effect1_dropShadow_729_38"/>
<feBlend mode="normal" in="SourceGraphic" in2="effect1_dropShadow_729_38" result="shape"/>
</filter>
</defs>
</svg>
