<svg width="76" height="71" viewBox="0 0 76 71" fill="none" xmlns="http://www.w3.org/2000/svg">
<g filter="url(#filter0_d_459_129)">
<mask id="mask0_459_129" style="mask-type:alpha" maskUnits="userSpaceOnUse" x="0" y="0" width="76" height="70">
<rect width="76" height="70" fill="#D9D9D9"/>
</mask>
<g mask="url(#mask0_459_129)">
<path d="M37.3301 59.3149C37.6954 59.3149 38.0852 59.2401 38.4994 59.0905C38.9135 58.9409 39.2463 58.7409 39.498 58.4903L65.3551 34.6298C66.1021 33.9418 66.6776 33.1927 67.0815 32.3825C67.4855 31.5723 67.6875 30.7247 67.6875 29.8398C67.6875 28.9386 67.4855 28.0514 67.0815 27.1783C66.6776 26.3052 66.1021 25.5246 65.3551 24.8365L52.1099 12.6371C51.3629 11.949 50.5459 11.433 49.6588 11.089C48.7717 10.7449 47.839 10.5729 46.8605 10.5729C45.8997 10.5729 44.9744 10.7449 44.0846 11.089C43.1949 11.433 42.3866 11.949 41.6599 12.6371L39.4432 14.6788L45.7034 20.4897C46.3287 21.0955 46.8696 21.8106 47.3264 22.6351C47.783 23.4596 48.0114 24.3411 48.0114 25.2797C48.0114 26.9213 47.3446 28.3441 46.0109 29.5481C44.6773 30.7522 43.1295 31.3542 41.3676 31.3542C40.2308 31.3542 39.2626 31.1999 38.4628 30.8914C37.663 30.5829 36.9325 30.1296 36.2711 29.5316L30.3757 24.0849L16.2596 37.0865C15.9551 37.367 15.7298 37.6836 15.5836 38.0363C15.4375 38.3892 15.3644 38.7471 15.3644 39.1102C15.3644 39.8177 15.6141 40.3968 16.1135 40.8474C16.6128 41.298 17.2374 41.5233 17.9871 41.5233C18.4026 41.5233 18.8011 41.4363 19.1827 41.2625C19.5643 41.0886 19.881 40.8857 20.1328 40.6539L30.6619 30.956L33.1951 33.2892L22.7147 42.9142C22.4102 43.2134 22.1849 43.5415 22.0388 43.8986C21.8926 44.2557 21.8195 44.6175 21.8195 44.984C21.8195 45.6421 22.0824 46.2133 22.6082 46.6975C23.1339 47.1818 23.7541 47.4239 24.4686 47.4239C24.8665 47.4239 25.2562 47.3491 25.6379 47.1996C26.0195 47.05 26.3362 46.8499 26.5879 46.5994L37.4824 36.5649L40.0156 38.8982L29.1698 48.8597C28.9181 49.1103 28.706 49.4222 28.5335 49.7955C28.3609 50.1688 28.2747 50.5468 28.2747 50.9295C28.2747 51.5876 28.5375 52.1588 29.0632 52.643C29.589 53.1273 30.2092 53.3694 30.9237 53.3694C31.3216 53.3694 31.6981 53.3021 32.0534 53.1675C32.4086 53.0328 32.7385 52.8253 33.043 52.5449L43.9375 42.5104L46.4708 44.8437L35.5762 54.8781C35.2717 55.1586 35.0464 55.4867 34.9003 55.8625C34.7541 56.2383 34.681 56.5851 34.681 56.903C34.681 57.6397 34.9277 58.2258 35.421 58.6614C35.9142 59.097 36.5506 59.3149 37.3301 59.3149ZM37.3351 62.6241C35.6916 62.6241 34.2548 62.0567 33.0247 60.9218C31.7945 59.7869 31.149 58.3696 31.0882 56.6699C29.2937 56.5823 27.7946 56.0074 26.5909 54.9454C25.3872 53.8835 24.7346 52.4794 24.6331 50.7331C22.7574 50.6209 21.2411 50.0217 20.084 48.9355C18.927 47.8492 18.3078 46.4666 18.2267 44.7876C16.3957 44.6941 14.8621 44.1239 13.6259 43.0769C12.3897 42.0299 11.7716 40.6838 11.7716 39.0385C11.7716 38.2682 11.9389 37.4967 12.2734 36.724C12.608 35.9513 13.0761 35.2794 13.6776 34.7083L30.3757 19.3286L38.4445 26.7605C38.8464 27.1307 39.3038 27.4298 39.8167 27.6579C40.3296 27.886 40.8628 28.0001 41.4163 28.0001C42.1633 28.0001 42.8504 27.7159 43.4777 27.1475C44.1049 26.5791 44.4186 25.9378 44.4186 25.2236C44.4186 24.8459 44.311 24.4561 44.0958 24.0541C43.8806 23.6522 43.5721 23.2567 43.1701 22.8678L32.0625 12.6371C31.3155 11.949 30.4933 11.433 29.5961 11.089C28.6989 10.7449 27.7611 10.5729 26.7826 10.5729C25.8218 10.5729 24.9067 10.7449 24.0372 11.089C23.1677 11.433 22.361 11.9455 21.6171 12.6266L10.584 22.7949C9.80453 23.5128 9.2392 24.2906 8.88802 25.1282C8.53683 25.9658 8.35515 26.9053 8.34296 27.9467C8.3105 28.8199 8.48303 29.6687 8.86055 30.4932C9.23812 31.3177 9.70299 32.0665 10.2551 32.7396L7.61225 35.1458C6.80026 34.2259 6.12531 33.1153 5.5874 31.8141C5.04949 30.5128 4.77038 29.1872 4.75006 27.8373C4.72979 26.4164 5.0079 25.0656 5.58439 23.7849C6.16089 22.5042 6.983 21.3721 8.05075 20.3887L19 10.3038C20.1002 9.29045 21.3178 8.53792 22.6527 8.04622C23.9876 7.55447 25.3852 7.30859 26.8455 7.30859C28.3057 7.30859 29.6956 7.55447 31.015 8.04622C32.3345 8.53792 33.5443 9.29045 34.6445 10.3038L36.8612 12.3455L39.0779 10.3038C40.1781 9.29045 41.3906 8.53792 42.7154 8.04622C44.0402 7.55447 45.4327 7.30859 46.8929 7.30859C48.3532 7.30859 49.7481 7.55447 51.0777 8.04622C52.4073 8.53792 53.6221 9.29045 54.7223 10.3038L67.8883 22.4303C68.9885 23.4437 69.8289 24.599 70.4095 25.8962C70.99 27.1935 71.2803 28.5088 71.2803 29.8421C71.2803 31.1755 70.99 32.4498 70.4095 33.6651C69.8289 34.8803 68.9885 35.9946 67.8883 37.008L42.0313 60.8236C41.3858 61.4369 40.6624 61.8903 39.8609 62.1838C39.0594 62.4773 38.2175 62.6241 37.3351 62.6241Z" fill="#ED8A2E"/>
</g>
</g>
<defs>
<filter id="filter0_d_459_129" x="0.749023" y="7.30859" width="74.5313" height="63.3155" filterUnits="userSpaceOnUse" color-interpolation-filters="sRGB">
<feFlood flood-opacity="0" result="BackgroundImageFix"/>
<feColorMatrix in="SourceAlpha" type="matrix" values="0 0 0 0 0 0 0 0 0 0 0 0 0 0 0 0 0 0 127 0" result="hardAlpha"/>
<feOffset dy="4"/>
<feGaussianBlur stdDeviation="2"/>
<feComposite in2="hardAlpha" operator="out"/>
<feColorMatrix type="matrix" values="0 0 0 0 0 0 0 0 0 0 0 0 0 0 0 0 0 0 0.25 0"/>
<feBlend mode="normal" in2="BackgroundImageFix" result="effect1_dropShadow_459_129"/>
<feBlend mode="normal" in="SourceGraphic" in2="effect1_dropShadow_459_129" result="shape"/>
</filter>
</defs>
</svg>
