<svg width="41" height="43" viewBox="0 0 41 43" fill="none" xmlns="http://www.w3.org/2000/svg">
<g clip-path="url(#clip0_235_90)">
<path d="M20.5092 11.8418C14.6886 11.8418 9.99378 16.1502 9.99378 21.4916C9.99378 26.8331 14.6886 31.1415 20.5092 31.1415C26.3297 31.1415 31.0246 26.8331 31.0246 21.4916C31.0246 16.1502 26.3297 11.8418 20.5092 11.8418ZM20.5092 27.7653C16.7478 27.7653 13.6728 24.9518 13.6728 21.4916C13.6728 18.0315 16.7386 15.218 20.5092 15.218C24.2797 15.218 27.3456 18.0315 27.3456 21.4916C27.3456 24.9518 24.2706 27.7653 20.5092 27.7653ZM33.9074 11.4471C33.9074 12.6985 32.8092 13.6979 31.4547 13.6979C30.0911 13.6979 29.002 12.6901 29.002 11.4471C29.002 10.2042 30.1003 9.19634 31.4547 9.19634C32.8092 9.19634 33.9074 10.2042 33.9074 11.4471ZM40.8719 13.7315C40.7163 10.7165 39.9659 8.04575 37.559 5.84536C35.1612 3.64497 32.2509 2.9563 28.9654 2.80513C25.5793 2.62876 15.4299 2.62876 12.0438 2.80513C8.76744 2.9479 5.85717 3.63657 3.45025 5.83696C1.04333 8.03735 0.302037 10.7081 0.137305 13.7231C-0.0548828 16.8305 -0.0548828 26.1444 0.137305 29.2518C0.292885 32.2668 1.04333 34.9375 3.45025 37.1379C5.85717 39.3383 8.75829 40.027 12.0438 40.1782C15.4299 40.3545 25.5793 40.3545 28.9654 40.1782C32.2509 40.0354 35.1612 39.3467 37.559 37.1379C39.9567 34.9375 40.7072 32.2668 40.8719 29.2518C41.0641 26.1444 41.0641 16.8389 40.8719 13.7315ZM36.4973 32.586C35.7835 34.2321 34.4016 35.5002 32.5987 36.1637C29.8989 37.1463 23.4927 36.9196 20.5092 36.9196C17.5257 36.9196 11.1103 37.1379 8.41967 36.1637C6.62592 35.5086 5.244 34.2405 4.52101 32.586C3.45025 30.1084 3.69735 24.2295 3.69735 21.4916C3.69735 18.7538 3.4594 12.8665 4.52101 10.3973C5.23485 8.75122 6.61677 7.48306 8.41967 6.81958C11.1194 5.83696 17.5257 6.06372 20.5092 6.06372C23.4927 6.06372 29.9081 5.84536 32.5987 6.81958C34.3924 7.47466 35.7744 8.74282 36.4973 10.3973C37.5681 12.8749 37.321 18.7538 37.321 21.4916C37.321 24.2295 37.5681 30.1168 36.4973 32.586Z" fill="white"/>
</g>
<defs>
<clipPath id="clip0_235_90">
<rect width="41" height="43" fill="white"/>
</clipPath>
</defs>
</svg>
