<svg width="28" height="48" viewBox="0 0 28 48" fill="none" xmlns="http://www.w3.org/2000/svg">
<g filter="url(#filter0_d_768_42)">
<circle cx="8.66667" cy="20.6667" r="0.666667" fill="#ED8A2E"/>
</g>
<g filter="url(#filter1_d_768_42)">
<rect x="5" y="1" width="18" height="38" stroke="#ED8A2E" stroke-width="2" shape-rendering="crispEdges"/>
</g>
<path d="M6.48997 7.82322C6.39234 7.92085 6.39234 8.07915 6.48997 8.17678L8.08096 9.76777C8.17859 9.8654 8.33688 9.8654 8.43451 9.76777C8.53215 9.67014 8.53215 9.51184 8.43451 9.41421L7.0203 8L8.43451 6.58579C8.53215 6.48816 8.53215 6.32986 8.43451 6.23223C8.33688 6.1346 8.17859 6.1346 8.08096 6.23223L6.48997 7.82322ZM21.5102 8.17678C21.6078 8.07915 21.6078 7.92085 21.5102 7.82322L19.9192 6.23223C19.8216 6.1346 19.6633 6.1346 19.5656 6.23223C19.468 6.32986 19.468 6.48816 19.5656 6.58579L20.9799 8L19.5656 9.41421C19.468 9.51184 19.468 9.67014 19.5656 9.76777C19.6633 9.8654 19.8216 9.8654 19.9192 9.76777L21.5102 8.17678ZM6.66675 8.25H21.3334V7.75H6.66675V8.25Z" fill="#ED8A2E"/>
<defs>
<filter id="filter0_d_768_42" x="4" y="20" width="9.33325" height="9.33331" filterUnits="userSpaceOnUse" color-interpolation-filters="sRGB">
<feFlood flood-opacity="0" result="BackgroundImageFix"/>
<feColorMatrix in="SourceAlpha" type="matrix" values="0 0 0 0 0 0 0 0 0 0 0 0 0 0 0 0 0 0 127 0" result="hardAlpha"/>
<feOffset dy="4"/>
<feGaussianBlur stdDeviation="2"/>
<feComposite in2="hardAlpha" operator="out"/>
<feColorMatrix type="matrix" values="0 0 0 0 0 0 0 0 0 0 0 0 0 0 0 0 0 0 0.25 0"/>
<feBlend mode="normal" in2="BackgroundImageFix" result="effect1_dropShadow_768_42"/>
<feBlend mode="normal" in="SourceGraphic" in2="effect1_dropShadow_768_42" result="shape"/>
</filter>
<filter id="filter1_d_768_42" x="0" y="0" width="28" height="48" filterUnits="userSpaceOnUse" color-interpolation-filters="sRGB">
<feFlood flood-opacity="0" result="BackgroundImageFix"/>
<feColorMatrix in="SourceAlpha" type="matrix" values="0 0 0 0 0 0 0 0 0 0 0 0 0 0 0 0 0 0 127 0" result="hardAlpha"/>
<feOffset dy="4"/>
<feGaussianBlur stdDeviation="2"/>
<feComposite in2="hardAlpha" operator="out"/>
<feColorMatrix type="matrix" values="0 0 0 0 0 0 0 0 0 0 0 0 0 0 0 0 0 0 0.25 0"/>
<feBlend mode="normal" in2="BackgroundImageFix" result="effect1_dropShadow_768_42"/>
<feBlend mode="normal" in="SourceGraphic" in2="effect1_dropShadow_768_42" result="shape"/>
</filter>
</defs>
</svg>
