<svg width="73" height="77" viewBox="0 0 73 77" fill="none" xmlns="http://www.w3.org/2000/svg">
<g filter="url(#filter0_d_513_94)">
<path d="M52.3563 20.9084C52.3563 22.5728 51.1009 23.8169 49.6782 23.8169C48.2554 23.8169 47 22.5728 47 20.9084C47 19.2441 48.2554 18 49.6782 18C51.1009 18 52.3563 19.2441 52.3563 20.9084Z" stroke="#ED8A2E" stroke-width="2"/>
<line x1="42" y1="41" x2="53.954" y2="41" stroke="#ED8A2E" stroke-width="2"/>
<line x1="42" y1="44" x2="53.954" y2="44" stroke="#ED8A2E" stroke-width="2"/>
<path d="M55.0345 35.9944L53.4298 35.4453C49.5796 34.128 45.4244 36.3784 44.4221 40.3223V40.3223C44.1449 41.413 44.1363 42.555 44.3971 43.6497V43.6497C45.3876 47.8072 49.8566 50.0978 53.8101 48.4745L55.0345 47.9718" stroke="#ED8A2E" stroke-width="2"/>
<line x1="67" y1="59.5" x2="38" y2="59.5" stroke="#ED8A2E" stroke-width="3"/>
<line x1="67.5" y1="18" x2="67.5" y2="61" stroke="#ED8A2E" stroke-width="3"/>
<line x1="67.9684" y1="19.0889" x2="48.9684" y2="1.08893" stroke="#ED8A2E" stroke-width="3"/>
<line x1="51.0316" y1="1.08893" x2="32.0316" y2="19.0889" stroke="#ED8A2E" stroke-width="3"/>
<line x1="32.5" y1="18" x2="32.5" y2="46" stroke="#ED8A2E" stroke-width="3"/>
<line x1="13.7368" y1="67" x2="4" y2="67" stroke="#ED8A2E" stroke-width="2"/>
<line x1="5.00002" y1="45" x2="5.00002" y2="68" stroke="#ED8A2E" stroke-width="2"/>
<line x1="13.7368" y1="46" x2="4" y2="46" stroke="#ED8A2E" stroke-width="2"/>
<line x1="14" y1="68" x2="14" y2="45" stroke="#ED8A2E" stroke-width="2"/>
<path d="M36 67L21.194 67.0165C20.7332 67.017 20.2743 66.9589 19.8282 66.8435L19.2876 66.7037C18.7707 66.57 18.2951 66.3099 17.9037 65.9467V65.9467C17.4732 65.5473 16.9417 65.2732 16.3667 65.1541L16.0592 65.0904C15.769 65.0303 15.4735 65 15.1773 65H14" stroke="#ED8A2E" stroke-width="2"/>
<mask id="path-15-inside-1_513_94" fill="white">
<path d="M35.5 68C36.4283 68 37.3185 67.6313 37.9749 66.9749C38.6313 66.3185 39 65.4283 39 64.5C39 63.5717 38.6313 62.6815 37.9749 62.0251C37.3185 61.3687 36.4283 61 35.5 61L35.5 62.9938C35.8995 62.9938 36.2826 63.1525 36.5651 63.4349C36.8476 63.7174 37.0062 64.1005 37.0062 64.5C37.0062 64.8995 36.8476 65.2826 36.5651 65.5651C36.2826 65.8475 35.8995 66.0062 35.5 66.0062L35.5 68Z"/>
</mask>
<path d="M35.5 68C36.4283 68 37.3185 67.6313 37.9749 66.9749C38.6313 66.3185 39 65.4283 39 64.5C39 63.5717 38.6313 62.6815 37.9749 62.0251C37.3185 61.3687 36.4283 61 35.5 61L35.5 62.9938C35.8995 62.9938 36.2826 63.1525 36.5651 63.4349C36.8476 63.7174 37.0062 64.1005 37.0062 64.5C37.0062 64.8995 36.8476 65.2826 36.5651 65.5651C36.2826 65.8475 35.8995 66.0062 35.5 66.0062L35.5 68Z" stroke="#ED8A2E" stroke-width="2" mask="url(#path-15-inside-1_513_94)"/>
<line x1="36.5439" y1="62" x2="32.0001" y2="62" stroke="#ED8A2E" stroke-width="2"/>
<mask id="path-17-inside-2_513_94" fill="white">
<path d="M36.5 63C37.4283 63 38.3185 62.6313 38.9749 61.9749C39.6313 61.3185 40 60.4283 40 59.5C40 58.5717 39.6313 57.6815 38.9749 57.0251C38.3185 56.3687 37.4283 56 36.5 56L36.5 57.9938C36.8995 57.9938 37.2826 58.1525 37.5651 58.4349C37.8476 58.7174 38.0062 59.1005 38.0062 59.5C38.0062 59.8995 37.8476 60.2826 37.5651 60.5651C37.2826 60.8475 36.8995 61.0062 36.5 61.0062L36.5 63Z"/>
</mask>
<path d="M36.5 63C37.4283 63 38.3185 62.6313 38.9749 61.9749C39.6313 61.3185 40 60.4283 40 59.5C40 58.5717 39.6313 57.6815 38.9749 57.0251C38.3185 56.3687 37.4283 56 36.5 56L36.5 57.9938C36.8995 57.9938 37.2826 58.1525 37.5651 58.4349C37.8476 58.7174 38.0062 59.1005 38.0062 59.5C38.0062 59.8995 37.8476 60.2826 37.5651 60.5651C37.2826 60.8475 36.8995 61.0062 36.5 61.0062L36.5 63Z" stroke="#ED8A2E" stroke-width="2" mask="url(#path-17-inside-2_513_94)"/>
<line x1="37.5439" y1="57" x2="33.0001" y2="57" stroke="#ED8A2E" stroke-width="2"/>
<mask id="path-19-inside-3_513_94" fill="white">
<path d="M37.5 58C38.4283 58 39.3185 57.6313 39.9749 56.9749C40.6313 56.3185 41 55.4283 41 54.5C41 53.5717 40.6313 52.6815 39.9749 52.0251C39.3185 51.3687 38.4283 51 37.5 51L37.5 52.9938C37.8995 52.9938 38.2826 53.1525 38.5651 53.4349C38.8476 53.7174 39.0062 54.1005 39.0062 54.5C39.0062 54.8995 38.8476 55.2826 38.5651 55.5651C38.2826 55.8475 37.8995 56.0062 37.5 56.0062L37.5 58Z"/>
</mask>
<path d="M37.5 58C38.4283 58 39.3185 57.6313 39.9749 56.9749C40.6313 56.3185 41 55.4283 41 54.5C41 53.5717 40.6313 52.6815 39.9749 52.0251C39.3185 51.3687 38.4283 51 37.5 51L37.5 52.9938C37.8995 52.9938 38.2826 53.1525 38.5651 53.4349C38.8476 53.7174 39.0062 54.1005 39.0062 54.5C39.0062 54.8995 38.8476 55.2826 38.5651 55.5651C38.2826 55.8475 37.8995 56.0062 37.5 56.0062L37.5 58Z" stroke="#ED8A2E" stroke-width="2" mask="url(#path-19-inside-3_513_94)"/>
<line x1="38.5439" y1="52" x2="34.0001" y2="52" stroke="#ED8A2E" stroke-width="2"/>
<mask id="path-21-inside-4_513_94" fill="white">
<path d="M38.5 53C39.4283 53 40.3185 52.6313 40.9749 51.9749C41.6313 51.3185 42 50.4283 42 49.5C42 48.5717 41.6313 47.6815 40.9749 47.0251C40.3185 46.3687 39.4283 46 38.5 46L38.5 47.9938C38.8995 47.9938 39.2826 48.1525 39.5651 48.4349C39.8476 48.7174 40.0062 49.1005 40.0062 49.5C40.0062 49.8995 39.8476 50.2826 39.5651 50.5651C39.2826 50.8475 38.8995 51.0062 38.5 51.0062L38.5 53Z"/>
</mask>
<path d="M38.5 53C39.4283 53 40.3185 52.6313 40.9749 51.9749C41.6313 51.3185 42 50.4283 42 49.5C42 48.5717 41.6313 47.6815 40.9749 47.0251C40.3185 46.3687 39.4283 46 38.5 46L38.5 47.9938C38.8995 47.9938 39.2826 48.1525 39.5651 48.4349C39.8476 48.7174 40.0062 49.1005 40.0062 49.5C40.0062 49.8995 39.8476 50.2826 39.5651 50.5651C39.2826 50.8475 38.8995 51.0062 38.5 51.0062L38.5 53Z" stroke="#ED8A2E" stroke-width="2" mask="url(#path-21-inside-4_513_94)"/>
<path d="M39 47H29.2837C28.9892 47 28.71 46.8693 28.5213 46.6432V46.6432C28.2181 46.28 28.2133 45.7534 28.5098 45.3847L28.819 45" stroke="#ED8A2E" stroke-width="2"/>
<path d="M28.2807 46.1293L28.9249 43.6827C29.1437 42.8517 29.2544 41.996 29.2544 41.1367V39.1209C29.2544 38.4158 29.1799 37.7128 29.032 37.0234L28.6053 35.0345L28.1051 33.4801C28.0071 33.1756 27.8407 32.8976 27.6185 32.6674V32.6674C26.7572 31.7752 25.3135 31.8232 24.5133 32.7705L24.2331 33.1022C23.9099 33.4849 23.7098 33.9563 23.6591 34.4547L23.4546 36.4678C23.2192 38.7842 22.0977 40.9201 20.3244 42.4289L14 47.8103" stroke="#ED8A2E" stroke-width="2"/>
</g>
<defs>
<filter id="filter0_d_513_94" x="0" y="0" width="73" height="76.0165" filterUnits="userSpaceOnUse" color-interpolation-filters="sRGB">
<feFlood flood-opacity="0" result="BackgroundImageFix"/>
<feColorMatrix in="SourceAlpha" type="matrix" values="0 0 0 0 0 0 0 0 0 0 0 0 0 0 0 0 0 0 127 0" result="hardAlpha"/>
<feOffset dy="4"/>
<feGaussianBlur stdDeviation="2"/>
<feComposite in2="hardAlpha" operator="out"/>
<feColorMatrix type="matrix" values="0 0 0 0 0 0 0 0 0 0 0 0 0 0 0 0 0 0 0.25 0"/>
<feBlend mode="normal" in2="BackgroundImageFix" result="effect1_dropShadow_513_94"/>
<feBlend mode="normal" in="SourceGraphic" in2="effect1_dropShadow_513_94" result="shape"/>
</filter>
</defs>
</svg>
