<svg width="70" height="70" viewBox="0 0 70 70" fill="none" xmlns="http://www.w3.org/2000/svg">
<g filter="url(#filter0_d_797_42)">
<path d="M35 0C26.475 0 19.5 8.68 19.5 19.375C19.5 30.07 26.475 38.75 35 38.75C43.525 38.75 50.5 30.07 50.5 19.375C50.5 8.68 43.525 0 35 0ZM18.8025 38.75C10.5875 39.1375 4 45.88 4 54.25V62H66V54.25C66 45.88 59.49 39.1375 51.1975 38.75C47.0125 43.4775 41.2775 46.5 35 46.5C28.7225 46.5 22.9875 43.4775 18.8025 38.75Z" fill="black"/>
</g>
<defs>
<filter id="filter0_d_797_42" x="0" y="0" width="70" height="70" filterUnits="userSpaceOnUse" color-interpolation-filters="sRGB">
<feFlood flood-opacity="0" result="BackgroundImageFix"/>
<feColorMatrix in="SourceAlpha" type="matrix" values="0 0 0 0 0 0 0 0 0 0 0 0 0 0 0 0 0 0 127 0" result="hardAlpha"/>
<feOffset dy="4"/>
<feGaussianBlur stdDeviation="2"/>
<feComposite in2="hardAlpha" operator="out"/>
<feColorMatrix type="matrix" values="0 0 0 0 0 0 0 0 0 0 0 0 0 0 0 0 0 0 0.25 0"/>
<feBlend mode="normal" in2="BackgroundImageFix" result="effect1_dropShadow_797_42"/>
<feBlend mode="normal" in="SourceGraphic" in2="effect1_dropShadow_797_42" result="shape"/>
</filter>
</defs>
</svg>
