<svg width="40" height="60" viewBox="0 0 40 60" fill="none" xmlns="http://www.w3.org/2000/svg">
<path fill-rule="evenodd" clip-rule="evenodd" d="M5 3H35C36.1046 3 37 3.89543 37 5V47H3V5C3 3.89543 3.89543 3 5 3ZM0 49V47V5C0 2.23858 2.23858 0 5 0H35C37.7614 0 40 2.23858 40 5V47V49V55C40 57.7614 37.7614 60 35 60H5C2.23858 60 0 57.7614 0 55V49ZM37 49V55C37 56.1046 36.1046 57 35 57H5C3.89543 57 3 56.1046 3 55V49H37ZM20 55C21.1046 55 22 54.1046 22 53C22 51.8954 21.1046 51 20 51C18.8954 51 18 51.8954 18 53C18 54.1046 18.8954 55 20 55ZM20 56C21.6569 56 23 54.6569 23 53C23 51.3431 21.6569 50 20 50C18.3431 50 17 51.3431 17 53C17 54.6569 18.3431 56 20 56ZM6 6H34V44H6V6ZM5 5H6H34H35V6V44V45H34H6H5V44V6V5Z" fill="black"/>
</svg>
